<?xml version="1.0" standalone="no"?>
<!DOCTYPE svg PUBLIC "-//W3C//DTD SVG 20010904//EN"
 "http://www.w3.org/TR/2001/REC-SVG-20010904/DTD/svg10.dtd">
<svg version="1.0" xmlns="http://www.w3.org/2000/svg"
 width="1014.000000pt" height="1014.000000pt" viewBox="0 0 1014.000000 1014.000000"
 preserveAspectRatio="xMidYMid meet">
<metadata>
Created by potrace 1.11, written by Peter Selinger 2001-2013
</metadata>
<g transform="translate(0.000000,1014.000000) scale(0.100000,-0.100000)"
fill="#000000" stroke="none">
<path d="M6713 8756 c-79 -26 -126 -63 -176 -143 -13 -21 -161 -245 -329 -498
-167 -253 -374 -566 -460 -695 -85 -129 -285 -431 -443 -670 -159 -239 -352
-532 -430 -650 -78 -118 -249 -377 -380 -575 -132 -198 -246 -371 -255 -385
-8 -14 -69 -107 -135 -205 l-119 -180 -1 -143 c0 -78 2 -141 6 -140 4 2 100
120 214 263 114 143 217 274 231 290 13 17 134 170 269 340 136 171 259 326
275 345 16 19 119 150 231 290 111 140 258 325 325 410 68 85 270 340 449 565
180 226 339 426 354 445 16 19 155 195 310 390 155 195 293 369 307 385 95
114 134 187 135 256 4 130 -58 237 -168 289 -57 27 -154 34 -210 16z"/>
<path d="M7732 8644 c-30 -8 -71 -26 -92 -41 -21 -16 -141 -147 -265 -293
-125 -146 -239 -278 -254 -295 -15 -16 -65 -75 -111 -130 -47 -55 -87 -102
-90 -105 -3 -3 -43 -50 -90 -105 -46 -55 -91 -107 -100 -116 -8 -8 -35 -40
-60 -69 -25 -30 -63 -75 -85 -100 -22 -25 -61 -70 -86 -100 -42 -50 -274 -320
-325 -380 -57 -66 -182 -211 -224 -260 -26 -30 -103 -120 -171 -199 -68 -79
-153 -178 -188 -220 -35 -42 -87 -103 -116 -136 -29 -33 -126 -145 -215 -250
-211 -246 -226 -264 -425 -495 -92 -107 -187 -217 -210 -245 -46 -54 -531
-619 -599 -698 l-41 -47 -1 -93 c0 -50 1 -96 4 -100 2 -5 59 47 127 115 117
118 1298 1289 2045 2028 1977 1958 1919 1898 1935 1981 45 221 -150 410 -363
353z"/>
<path d="M8805 8513 c-41 -17 -89 -48 -128 -86 -13 -12 -57 -53 -99 -92 -72
-67 -231 -214 -367 -341 -37 -33 -100 -91 -141 -129 -41 -38 -95 -88 -120
-111 -25 -23 -58 -55 -75 -70 -47 -42 -233 -215 -275 -254 -20 -19 -88 -82
-151 -140 -63 -57 -136 -126 -164 -152 -27 -26 -66 -62 -86 -80 -20 -18 -83
-76 -140 -128 -57 -52 -110 -102 -119 -110 -8 -8 -47 -44 -85 -80 -39 -36
-126 -117 -194 -180 -68 -63 -133 -123 -144 -132 -22 -20 -302 -278 -392 -363
-12 -11 -70 -65 -130 -120 -59 -55 -124 -116 -145 -135 -21 -19 -79 -73 -130
-120 -51 -47 -107 -98 -124 -115 -50 -47 -238 -220 -271 -250 -43 -39 -223
-206 -266 -246 -20 -19 -82 -77 -139 -129 -57 -52 -108 -100 -114 -105 -6 -6
-43 -40 -81 -75 -66 -61 -260 -241 -345 -320 -21 -19 -103 -96 -184 -170 -80
-74 -146 -137 -146 -140 0 -4 103 -5 175 -1 11 1 52 26 90 57 39 31 85 68 103
82 19 15 46 37 60 49 15 12 189 150 387 308 198 157 369 294 380 303 11 9 119
96 240 192 121 96 227 180 235 187 33 27 1255 1000 1630 1298 221 176 407 325
414 330 15 13 119 97 651 520 248 197 503 401 567 452 147 117 173 145 199
213 26 69 22 176 -10 236 -28 55 -82 108 -138 135 -60 30 -168 35 -228 12z"/>
<path d="M8497 7199 c-21 -5 -52 -16 -70 -25 -27 -14 -403 -288 -417 -304 -3
-3 -21 -17 -40 -30 -27 -19 -522 -386 -660 -490 -123 -93 -696 -518 -713 -530
-12 -8 -130 -96 -262 -194 -132 -99 -316 -236 -410 -305 -93 -69 -305 -227
-471 -351 -166 -124 -405 -301 -531 -395 -516 -384 -584 -435 -576 -436 4 0
72 -1 149 -1 l142 -1 123 75 c113 69 463 285 599 371 129 80 1337 828 1600
990 145 90 738 457 817 506 23 14 70 43 105 65 35 21 79 49 98 61 38 25 215
134 242 150 10 6 79 48 154 95 76 47 187 115 248 152 67 41 130 88 157 119
130 141 80 374 -96 455 -57 26 -131 35 -188 23z"/>
<path d="M3342 6343 l3 -678 233 0 232 0 1 40 c0 22 1 221 1 442 l0 402 434
-1 c239 -1 437 2 440 5 5 5 7 140 5 405 l-1 62 -675 0 -675 0 2 -677z"/>
<path d="M3344 4841 c-2 -2 -4 -307 -4 -678 l0 -673 675 0 c636 0 675 1 676
18 1 25 1 348 0 407 l-1 50 -437 0 -438 0 -2 410 c-1 226 -2 424 -2 440 l-1
30 -231 0 c-127 0 -232 -2 -235 -4z"/>
<path d="M6401 4835 c-4 -5 -7 -202 -7 -438 1 -235 -1 -428 -4 -428 -3 -1
-198 -3 -435 -4 -236 -1 -433 -3 -437 -4 -4 0 -7 -107 -7 -236 l0 -235 679 0
678 0 1 675 c0 371 -3 676 -7 676 -42 8 -455 2 -461 -6z"/>
<path d="M3010 3354 c-229 -308 -224 -298 -194 -356 29 -55 88 -63 151 -20 22
15 135 97 250 182 l210 155 -128 3 -129 3 -1 52 c0 29 0 80 1 115 1 34 -2 62
-7 61 -4 0 -73 -88 -153 -195z"/>
<path d="M1645 2425 c-239 -59 -407 -272 -407 -514 0 -217 115 -400 308 -488
240 -110 515 -33 666 186 35 50 42 41 -83 106 l-87 44 -26 -38 c-81 -117 -254
-158 -386 -91 -52 27 -113 90 -141 146 -36 74 -34 188 4 266 94 191 347 231
497 78 22 -22 40 -45 40 -50 0 -7 184 81 199 96 2 2 -7 21 -21 41 -59 88 -163
168 -266 205 -69 24 -224 31 -297 13z"/>
<path d="M2790 2437 c-3 -3 -21 -7 -40 -10 -137 -19 -298 -142 -368 -282 -47
-95 -67 -234 -47 -340 37 -203 201 -371 409 -419 52 -12 176 -13 225 -2 140
32 271 123 337 233 l24 42 -99 50 -99 50 -27 -39 c-68 -98 -207 -144 -331
-111 -124 33 -224 163 -224 290 0 216 205 366 409 300 48 -16 88 -44 133 -93
l37 -41 95 50 c53 27 96 52 96 56 0 13 -62 91 -101 127 -97 88 -201 131 -334
139 -49 3 -92 3 -95 0z"/>
<path d="M3485 2430 l-40 -5 0 -518 c0 -380 3 -520 12 -525 14 -9 791 -7 800
1 9 9 10 166 1 180 -5 9 -89 12 -295 12 l-288 0 -3 104 c-2 61 1 107 7 110 6
4 114 6 241 6 l231 -1 -3 105 -3 104 -237 0 -238 0 0 112 c0 81 3 114 13 117
6 2 128 4 270 3 167 0 257 3 257 10 4 86 4 185 0 186 -29 3 -695 3 -725 -1z"/>
<path d="M4444 2432 l-42 -3 2 -522 1 -522 383 -1 382 -1 0 98 0 99 -270 0
-270 0 0 425 c0 234 -3 425 -7 426 -29 3 -145 3 -179 1z"/>
<path d="M5293 2432 l-23 -3 0 -525 c0 -412 3 -524 13 -525 16 -1 767 -1 788
0 13 1 16 17 17 95 2 68 -1 95 -10 98 -7 2 -140 4 -295 4 -156 -1 -284 1 -284
4 -7 32 -3 210 6 213 5 2 112 3 238 2 125 0 228 2 228 5 7 28 3 193 -5 197 -5
4 -113 7 -240 7 l-230 1 -1 113 c-1 71 3 112 10 113 5 1 127 2 270 3 l260 1 1
98 1 97 -31 1 c-134 2 -696 3 -713 1z"/>
<path d="M9379 2432 l-56 -3 0 -517 c0 -284 3 -521 7 -527 6 -8 691 -13 798
-6 10 1 12 25 10 99 l-3 97 -290 0 c-219 0 -291 2 -295 12 -3 6 -4 56 -2 110
l3 98 237 0 237 0 1 103 c1 97 0 102 -20 103 -11 0 -119 1 -238 1 -193 1 -218
3 -218 17 -5 200 -5 210 10 213 8 2 131 4 273 3 l257 0 0 100 0 100 -327 0
c-181 0 -353 -1 -384 -3z"/>
<path d="M405 2257 c-43 -95 -95 -210 -117 -256 -21 -46 -70 -154 -109 -240
-39 -86 -82 -181 -96 -211 -50 -106 -73 -161 -73 -168 0 -4 46 -8 103 -7 l102
0 57 116 57 117 263 -2 263 -1 15 -30 c8 -16 31 -68 51 -115 l37 -85 107 0
c70 -1 109 3 112 10 2 7 -7 34 -21 61 -14 28 -41 86 -60 130 -34 78 -157 355
-285 639 -15 33 -42 94 -61 136 l-34 77 -117 1 -117 0 -77 -172z m238 -127
c38 -87 117 -280 119 -291 2 -10 -35 -13 -164 -14 -93 0 -168 0 -168 1 0 1 32
76 71 166 39 89 77 179 85 198 l15 35 13 -30 c8 -17 21 -46 29 -65z"/>
<path d="M6250 1902 l0 -528 113 0 c61 0 114 3 117 7 3 4 5 89 5 188 l0 181
55 0 56 0 124 -177 c68 -98 127 -182 132 -188 9 -10 277 -15 283 -5 2 3 -61
91 -140 195 l-144 189 44 17 c186 71 256 331 136 512 -28 43 -83 84 -151 112
-40 17 -79 19 -337 22 l-293 3 0 -528z m538 324 c68 -35 94 -138 54 -216 -29
-59 -73 -73 -226 -74 l-131 -1 0 150 c-1 83 1 154 3 158 2 4 63 6 136 4 98 -3
140 -9 164 -21z"/>
<path d="M7656 2357 c-27 -58 -148 -325 -346 -762 -10 -22 -37 -79 -59 -127
-22 -48 -37 -89 -33 -91 4 -2 52 -3 106 -3 l99 2 56 114 56 115 264 0 264 0
52 -115 51 -115 108 0 c59 0 110 3 112 6 2 4 -7 28 -20 55 -13 27 -49 108 -81
179 -56 127 -97 220 -116 260 -5 11 -63 139 -128 285 l-118 265 -117 2 -117 3
-33 -73z m234 -327 c40 -96 77 -181 83 -187 5 -7 6 -14 1 -14 -36 -5 -327 -3
-330 2 -4 7 27 84 88 219 13 30 35 81 49 112 13 31 27 54 30 50 4 -4 39 -86
79 -182z"/>
<path d="M8320 2330 l0 -99 165 2 c140 2 165 0 166 -13 1 -8 2 -202 3 -430 l1
-415 105 -1 c58 0 110 4 117 8 8 7 11 114 12 406 0 218 0 407 0 420 1 22 2 22
166 22 l165 0 0 100 0 99 -450 0 -450 -1 0 -98z"/>
</g>
</svg>
